<mxfile host="app.diagrams.net" modified="2023-06-18T16:23:59.066Z" agent="Mozilla/5.0 (Windows NT 10.0; Win64; x64) AppleWebKit/537.36 (KHTML, like Gecko) Chrome/114.0.0.0 Safari/537.36 Edg/114.0.1823.43" etag="ScOK-y-4xqmEQKpNRDkd" version="21.5.0" type="github">
  <diagram id="prtHgNgQTEPvFCAcTncT" name="Page-1">
    <mxGraphModel dx="2883" dy="898" grid="1" gridSize="10" guides="1" tooltips="1" connect="1" arrows="1" fold="1" page="1" pageScale="1" pageWidth="1169" pageHeight="827" math="0" shadow="0">
      <root>
        <mxCell id="0" />
        <mxCell id="1" parent="0" />
        <mxCell id="dNxyNK7c78bLwvsdeMH5-11" value="Orgchart" style="swimlane;html=1;startSize=20;horizontal=0;containerType=tree;glass=0;" parent="1" vertex="1">
          <mxGeometry x="-870" y="37" width="1850" height="1363" as="geometry">
            <mxRectangle x="40" y="80" width="90" height="30" as="alternateBounds" />
          </mxGeometry>
        </mxCell>
        <mxCell id="H1njv-cIf0RXQ_3d_nFq-1" value="BM&lt;br&gt;BUKOLA AKINYIMIKA&lt;br&gt;[A.M]" style="rounded=0;whiteSpace=wrap;html=1;" vertex="1" parent="dNxyNK7c78bLwvsdeMH5-11">
          <mxGeometry x="870" y="40" width="160" height="60" as="geometry" />
        </mxCell>
        <mxCell id="H1njv-cIf0RXQ_3d_nFq-3" value="CSM&lt;br&gt;ADEKUNLE ADEROHUNBI&lt;br&gt;[E.T]" style="rounded=0;whiteSpace=wrap;html=1;" vertex="1" parent="dNxyNK7c78bLwvsdeMH5-11">
          <mxGeometry x="1300" y="203" width="160" height="60" as="geometry" />
        </mxCell>
        <mxCell id="H1njv-cIf0RXQ_3d_nFq-12" value="&lt;p&gt;&lt;b&gt;&lt;font style=&quot;font-size: 14px;&quot; face=&quot;Times New Roman&quot;&gt;PCM, SME.&lt;br&gt;&lt;/font&gt;&lt;/b&gt;&lt;/p&gt;&lt;p&gt;&lt;b&gt;&lt;font size=&quot;3&quot; face=&quot;Times New Roman&quot;&gt;ABIOLA SODIQ&lt;br&gt;&lt;/font&gt;&lt;/b&gt;&lt;/p&gt;&lt;p&gt;&lt;b&gt;&lt;font size=&quot;3&quot; face=&quot;Times New Roman&quot;&gt;[A.B.O]&lt;/font&gt;&lt;/b&gt;&lt;/p&gt;&lt;p&gt;&lt;/p&gt;&lt;p&gt;&lt;/p&gt;" style="rounded=0;whiteSpace=wrap;html=1;" vertex="1" parent="dNxyNK7c78bLwvsdeMH5-11">
          <mxGeometry x="30" y="300" width="120" height="93" as="geometry" />
        </mxCell>
        <mxCell id="H1njv-cIf0RXQ_3d_nFq-15" value="PCM, CONSUMER LOAN&lt;br&gt;&lt;br&gt;MUSTAPHA AKINTOBI&lt;br&gt;&lt;br&gt;[E.T]" style="rounded=0;whiteSpace=wrap;html=1;" vertex="1" parent="dNxyNK7c78bLwvsdeMH5-11">
          <mxGeometry x="190" y="300" width="120" height="93" as="geometry" />
        </mxCell>
        <mxCell id="H1njv-cIf0RXQ_3d_nFq-16" value="RO, SME&lt;br&gt;CHRISTIAN EJEMEGUA&lt;br&gt;[E.T]" style="rounded=0;whiteSpace=wrap;html=1;" vertex="1" parent="dNxyNK7c78bLwvsdeMH5-11">
          <mxGeometry x="350" y="300" width="120" height="93" as="geometry" />
        </mxCell>
        <mxCell id="H1njv-cIf0RXQ_3d_nFq-17" value="" style="rounded=0;whiteSpace=wrap;html=1;" vertex="1" parent="dNxyNK7c78bLwvsdeMH5-11">
          <mxGeometry x="510" y="300" width="120" height="93" as="geometry" />
        </mxCell>
        <mxCell id="H1njv-cIf0RXQ_3d_nFq-18" value="" style="rounded=0;whiteSpace=wrap;html=1;" vertex="1" parent="dNxyNK7c78bLwvsdeMH5-11">
          <mxGeometry x="670" y="300" width="120" height="93" as="geometry" />
        </mxCell>
        <mxCell id="H1njv-cIf0RXQ_3d_nFq-9" value="&lt;p&gt;&lt;font face=&quot;Times New Roman&quot;&gt;&lt;b&gt;C.O&lt;br&gt;TOLULOPE OWOKADE&lt;br&gt;[E.T]&lt;/b&gt;&lt;/font&gt;&lt;/p&gt;" style="rounded=0;whiteSpace=wrap;html=1;" vertex="1" parent="dNxyNK7c78bLwvsdeMH5-11">
          <mxGeometry x="1520" y="360" width="155" height="60" as="geometry" />
        </mxCell>
        <mxCell id="H1njv-cIf0RXQ_3d_nFq-20" value="&lt;p style=&quot;line-height: 120%;&quot;&gt;&lt;/p&gt;&lt;div style=&quot;line-height: 120%;&quot;&gt;&lt;p style=&quot;text-align: center;&quot;&gt;&lt;span style=&quot;font-family: &amp;quot;Times New Roman&amp;quot;; background-color: initial;&quot;&gt;&lt;b&gt;CUSTOMER SERVICE OFFICERS&lt;/b&gt;&lt;/span&gt;&lt;/p&gt;&lt;font face=&quot;Times New Roman&quot;&gt;&lt;div style=&quot;text-align: center;&quot;&gt;&lt;span style=&quot;background-color: initial;&quot;&gt;&lt;b&gt;NNEKA IFEANYICHUKWU&lt;/b&gt;&lt;/span&gt;&lt;/div&gt;&lt;/font&gt;&lt;/div&gt;&lt;div style=&quot;text-align: center; line-height: 120%;&quot;&gt;&lt;font face=&quot;Times New Roman&quot;&gt;&lt;b&gt;(ASSOCIATE 2)&lt;/b&gt;&lt;/font&gt;&lt;/div&gt;&lt;div style=&quot;text-align: center; line-height: 120%;&quot;&gt;&lt;font face=&quot;Times New Roman&quot;&gt;&lt;b&gt;&lt;br&gt;&lt;/b&gt;&lt;/font&gt;&lt;/div&gt;&lt;div style=&quot;text-align: center; line-height: 120%;&quot;&gt;&lt;font face=&quot;Times New Roman&quot;&gt;&lt;b&gt;BLESSING OKONKWO&lt;/b&gt;&lt;/font&gt;&lt;/div&gt;&lt;div style=&quot;line-height: 120%;&quot;&gt;&lt;div style=&quot;text-align: center;&quot;&gt;&lt;span style=&quot;font-family: &amp;quot;Times New Roman&amp;quot;; background-color: initial;&quot;&gt;&lt;b&gt;(ASSOCIATE 2)&lt;/b&gt;&lt;/span&gt;&lt;/div&gt;&lt;font face=&quot;Times New Roman&quot;&gt;&lt;div style=&quot;text-align: center;&quot;&gt;&lt;b&gt;&lt;br&gt;&lt;/b&gt;&lt;/div&gt;&lt;/font&gt;&lt;/div&gt;&lt;div style=&quot;text-align: center; line-height: 120%;&quot;&gt;&lt;font face=&quot;Times New Roman&quot;&gt;&lt;b&gt;JOSEPH OCHOKWU&lt;/b&gt;&lt;/font&gt;&lt;/div&gt;&lt;div style=&quot;text-align: center; line-height: 120%;&quot;&gt;&lt;font face=&quot;Times New Roman&quot;&gt;&lt;b&gt;(ASSOCIATE 2)&lt;/b&gt;&lt;/font&gt;&lt;/div&gt;&lt;p&gt;&lt;/p&gt;" style="rounded=0;whiteSpace=wrap;html=1;align=left;verticalAlign=top;" vertex="1" parent="dNxyNK7c78bLwvsdeMH5-11">
          <mxGeometry x="1070" y="360" width="200" height="250" as="geometry" />
        </mxCell>
        <mxCell id="H1njv-cIf0RXQ_3d_nFq-22" value="" style="edgeStyle=orthogonalEdgeStyle;rounded=0;orthogonalLoop=1;jettySize=auto;html=1;" edge="1" source="H1njv-cIf0RXQ_3d_nFq-9" target="H1njv-cIf0RXQ_3d_nFq-23" parent="dNxyNK7c78bLwvsdeMH5-11">
          <mxGeometry relative="1" as="geometry" />
        </mxCell>
        <mxCell id="H1njv-cIf0RXQ_3d_nFq-23" value="&lt;p&gt;&lt;font face=&quot;Times New Roman&quot;&gt;&lt;b&gt;C.O&lt;br&gt;TOLULOPE OWOKADE&lt;br&gt;[E.T]&lt;/b&gt;&lt;/font&gt;&lt;/p&gt;" style="rounded=0;whiteSpace=wrap;html=1;" vertex="1" parent="dNxyNK7c78bLwvsdeMH5-11">
          <mxGeometry x="1520" y="460" width="155" height="60" as="geometry" />
        </mxCell>
        <mxCell id="H1njv-cIf0RXQ_3d_nFq-38" value="&lt;p style=&quot;line-height: 120%;&quot;&gt;&lt;/p&gt;&lt;div style=&quot;line-height: 120%; font-size: 13px;&quot;&gt;&lt;p style=&quot;text-align: center;&quot;&gt;&lt;font style=&quot;font-size: 13px;&quot; face=&quot;Times New Roman&quot;&gt;&lt;b&gt;TELLERS&lt;/b&gt;&lt;/font&gt;&lt;/p&gt;&lt;p style=&quot;text-align: center;&quot;&gt;&lt;font style=&quot;font-size: 13px;&quot; face=&quot;Times New Roman&quot;&gt;&lt;b&gt;&lt;br&gt;&lt;/b&gt;&lt;/font&gt;&lt;/p&gt;&lt;p style=&quot;text-align: center;&quot;&gt;&lt;b&gt;&lt;font style=&quot;font-size: 13px;&quot; face=&quot;Times New Roman&quot;&gt;OPEYEMI ADEJUMO (&lt;/font&gt;ASSOCIATE 1&lt;font style=&quot;font-size: 13px;&quot; face=&quot;Times New Roman&quot;&gt;)&lt;/font&gt;&lt;/b&gt;&lt;/p&gt;&lt;p style=&quot;text-align: center;&quot;&gt;&lt;b&gt;&lt;font style=&quot;font-size: 13px;&quot; face=&quot;Times New Roman&quot;&gt;IMOLEAYO FADEYI (&lt;/font&gt;ASSOCIATE 1&lt;font style=&quot;font-size: 13px;&quot; face=&quot;Times New Roman&quot;&gt;)&lt;/font&gt;&lt;/b&gt;&lt;/p&gt;&lt;p style=&quot;text-align: center;&quot;&gt;&lt;b&gt;TAIWO FALUA (ASSOCIATE 1)&lt;/b&gt;&lt;/p&gt;&lt;p style=&quot;text-align: center;&quot;&gt;&lt;b&gt;ANITA ODIBOH (ASSOCIATE 1)&lt;/b&gt;&lt;/p&gt;&lt;p style=&quot;text-align: center;&quot;&gt;&lt;b&gt;TITILAYO FALEKE (ASSOCIATE 1)&lt;/b&gt;&lt;/p&gt;&lt;p style=&quot;text-align: center;&quot;&gt;&lt;b&gt;MUJANETU OGWEDA (ASSOCIATE 1)&lt;/b&gt;&lt;/p&gt;&lt;/div&gt;&lt;p&gt;&lt;/p&gt;" style="rounded=0;whiteSpace=wrap;html=1;align=left;verticalAlign=top;" vertex="1" parent="dNxyNK7c78bLwvsdeMH5-11">
          <mxGeometry x="1440" y="543" width="280" height="267" as="geometry" />
        </mxCell>
      </root>
    </mxGraphModel>
  </diagram>
</mxfile>
